<svg width="20px" height="20px" viewBox="0 0 56 56" fill="none" xmlns="http://www.w3.org/2000/svg">
<path d="M27.851 0C12.494 0 0 12.494 0 27.851C0 43.208 12.494 55.702 27.851 55.702C43.208 55.702 55.702 43.208 55.702 27.851C55.701 12.494 43.208 0 27.851 0ZM27.851 51.213C14.969 51.213 4.489 40.733 4.489 27.85C4.489 14.968 14.969 4.488 27.851 4.488C40.733 4.488 51.213 14.969 51.213 27.851C51.213 40.733 40.733 51.213 27.851 51.213Z" fill="#4B9CE2"/>
<path d="M36.729 18.97L23.729 31.971L18.972 27.214C18.096 26.337 16.675 26.337 15.799 27.214C14.922 28.09 14.922 29.511 15.799 30.387L22.143 36.731C22.581 37.169 23.156 37.389 23.73 37.389C24.304 37.389 24.878 37.17 25.316 36.731L39.903 22.144C40.779 21.267 40.779 19.847 39.903 18.97C39.026 18.094 37.606 18.094 36.729 18.97Z" fill="#FCFEFF"/>
</svg>
